<?xml version="1.0" encoding="UTF-8"?>
<svg width="56px" height="50px" viewBox="0 0 56 50" version="1.1" xmlns="http://www.w3.org/2000/svg" xmlns:xlink="http://www.w3.org/1999/xlink">
    <!-- Generator: Sketch 49.3 (51167) - http://www.bohemiancoding.com/sketch -->
    <title>Shape</title>
    <desc>Created with Sketch.</desc>
    <defs>
        <linearGradient x1="11.4147892%" y1="49.7500002%" x2="89.0998562%" y2="49.7500002%" id="linearGradient-1">
            <stop stop-color="#22A3DD" offset="0%"></stop>
            <stop stop-color="#53A0FD" offset="31.2305286%"></stop>
            <stop stop-color="#9CC846" offset="100%"></stop>
        </linearGradient>
    </defs>
    <g id="Page-1" stroke="none" stroke-width="1" fill="none" fill-rule="evenodd">
        <g id="HOME" transform="translate(-1172.000000, -3951.000000)" fill="url(#linearGradient-1)" fill-rule="nonzero">
            <g id="Group-5" transform="translate(269.000000, 3946.000000)">
                <g id="Group" transform="translate(95.000000, 0.000000)">
                    <path d="M863.362371,32.033307 C863.313333,29.1317666 863.247238,26.2302263 863.247238,23.3245349 C863.247238,20.2382756 863.225917,17.1561673 863.115048,14.069908 C863.080935,13.1566907 862.360287,12.39706 861.398713,12.39706 C861.319826,12.39706 861.249467,12.4323434 861.172711,12.4427208 C860.955238,12.3327197 860.718575,12.2621529 860.460592,12.2725303 C859.646133,12.3119647 858.844465,12.2704548 858.036402,12.2144165 C857.978835,11.8781865 857.823193,11.5730889 857.567341,11.3447846 C857.281641,10.9296858 856.827505,10.6225128 856.294482,10.6225128 C856.279557,10.6225128 856.2625,10.6225128 856.247576,10.6225128 C855.004565,10.6619471 853.75729,10.699306 852.516412,10.7470424 C851.640122,10.7823258 850.761699,10.7719483 849.887541,10.7636463 C849.375839,10.7553444 848.859872,10.7511934 848.34817,10.7511934 C848.117903,10.7511934 847.898298,10.8030807 847.695749,10.8902515 C846.915403,10.9898752 846.211812,11.6415802 846.254454,12.4385698 C846.254454,12.4489473 846.254454,12.4572493 846.256586,12.4676268 C845.855752,12.4717777 845.454919,12.4717777 845.054085,12.4759287 C844.966669,10.8155337 844.981594,9.15098764 844.928292,7.48644159 C845.011443,7.35568548 845.098859,7.22492937 845.141501,7.07549382 C845.256634,6.65416857 845.199068,6.19963543 844.973066,5.82604654 C844.823819,5.58113827 844.625534,5.38811734 844.373947,5.24283278 C844.118096,5.09754821 843.83666,5.02075494 843.536035,5.02075494 C843.376128,5.00622648 843.214089,5 843.052049,5 C842.683197,5 842.310081,5.02905691 841.945493,5.03528339 C841.297337,5.05188735 840.64918,5.05188735 840.001024,5.0684913 C838.740957,5.09339722 837.483021,5.10377469 836.222954,5.11622765 C834.890396,5.12868062 833.55997,5.16396401 832.227411,5.18471895 C830.762663,5.20962488 829.295783,5.2013229 827.831035,5.19717191 C827.076274,5.19717191 826.462231,5.75132876 826.323645,6.45077018 C826.234097,6.64794209 826.182926,6.86586894 826.185058,7.09209777 C826.197851,8.24192134 826.210644,9.39174492 826.229832,10.539493 C826.242625,11.2513874 826.229832,11.9591308 826.223436,12.6689497 C825.929207,12.6689497 825.634978,12.6689497 825.340749,12.6710252 C825.334353,12.4281924 825.342882,12.1853596 825.332221,11.9446023 C825.295976,11.05214 824.600913,10.3091132 823.656396,10.3091132 C823.398412,10.3091132 823.153222,10.3859065 822.922956,10.5000586 C821.850513,10.5872294 820.786598,10.6744001 819.722683,10.695155 C818.277124,10.7283629 816.825168,10.6432677 815.379609,10.5747764 C815.040606,10.5581724 814.739981,10.6847776 814.471337,10.8611945 C813.867955,11.0957253 813.443668,11.6685616 813.426611,12.3347952 C813.420215,12.708384 813.422347,13.0819729 813.418083,13.4555618 C812.505547,13.5095247 811.590879,13.5593365 810.682607,13.6257523 C810.237,13.6527337 809.844695,13.7731124 809.522748,14.0906629 C809.501427,14.1114179 809.492899,14.1404748 809.47371,14.1633052 C808.646458,14.3417977 808.004698,15.0370881 808.000434,15.8859651 C807.991905,19.5782686 808.111303,23.2684966 808.168869,26.9587246 C808.226436,30.3666854 808.128359,33.7829483 808.313851,37.1867581 C808.388475,38.4611113 808.467362,39.7354645 808.503608,41.0077423 C808.535589,42.2488876 808.539853,43.4962593 808.565438,44.7374046 C808.610212,47.1449775 808.6891,49.5650033 808.610212,51.9705006 C808.59742,52.3772974 808.774384,52.7405088 809.038763,53.0290025 C809.298879,53.6620281 809.936375,54.0771268 810.676211,54.1227877 C812.422395,54.2307134 814.172844,54.1269387 815.923293,54.0978818 C817.665213,54.0667494 819.407133,54.0729758 821.14479,54.0709003 C821.647964,54.0709003 822.15327,54.0709003 822.656444,54.0709003 C823.916511,54.0750513 825.17871,54.0792023 826.438778,54.0459944 C828.13166,54.010711 829.824542,53.9297668 831.517424,53.9173138 C832.66449,53.9090118 833.817953,53.9131628 834.969283,53.9131628 C837.314586,53.9214648 839.664153,53.9256158 842.009456,53.8280676 C843.75564,53.7554253 845.506089,53.699387 847.252273,53.67033 C848.936627,53.6412731 850.625245,53.6495751 852.309599,53.5769328 C855.166604,53.4524032 858.027874,53.4918376 860.87635,53.2718352 C861.360336,53.2324008 861.776094,53.1078712 862.132153,52.7654147 C862.309117,52.5931487 862.437043,52.3814484 862.524459,52.157295 C862.921028,51.8729524 863.193936,51.4350232 863.208861,50.9223762 C863.257899,49.3678314 863.385824,47.819513 863.415674,46.2649681 C863.445523,44.7249517 863.428466,43.1787088 863.436995,41.6386924 C863.443391,38.4382809 863.415674,35.2357939 863.362371,32.033307 Z M852.452449,13.8582076 C853.083549,13.8291507 853.716781,13.8021693 854.34788,13.7855653 C854.505655,13.7834898 854.665562,13.7855653 854.823337,13.7855653 C854.799884,15.1242588 854.776431,16.4650279 854.74445,17.8016459 C854.712468,19.0075078 854.746582,20.2195962 854.808413,21.4275336 C854.657034,21.4316846 854.505655,21.4358355 854.356409,21.437911 C853.78714,21.450364 853.220003,21.4731944 852.650734,21.5147043 C851.678499,21.5769691 850.708397,21.5624407 849.736162,21.5416857 C849.665803,20.3378993 849.650879,19.1278864 849.625293,17.9220245 C849.60184,16.5937085 849.576255,15.2674679 849.544274,13.9391519 C850.516509,13.9204724 851.484479,13.9038685 852.452449,13.8582076 Z M835.979896,8.06757986 C837.246359,8.07173085 838.514955,8.08418381 839.777154,8.10701425 C840.406122,8.11946721 841.039353,8.1236182 841.670453,8.13607116 C841.702434,8.72136042 841.736548,9.30664967 841.768529,9.88986344 C841.815435,10.7574199 841.866606,11.6270518 841.862341,12.4966837 C840.314442,12.5091366 838.766542,12.5298916 837.218642,12.5298916 C835.608911,12.5298916 833.994917,12.5381935 832.385186,12.5734769 C831.412952,12.5921564 830.442849,12.6108358 829.470614,12.6315908 C829.464218,11.9363003 829.449293,11.2389344 829.468482,10.5415685 C829.487671,9.75910733 829.498332,8.97664616 829.511124,8.19418499 C830.327716,8.16305258 831.144308,8.13607116 831.9609,8.11116523 C833.299854,8.06757986 834.638809,8.06342888 835.979896,8.06757986 Z M819.624607,13.9308499 C820.436935,13.9370764 821.251394,13.8685851 822.063722,13.8063203 C822.082911,14.1819847 822.11276,14.557649 822.121288,14.9333134 C822.138345,15.8091718 822.108496,16.6850302 822.091439,17.5650396 C822.065854,18.9473185 822.07225,20.3233709 822.093571,21.7035743 C821.189564,21.7471596 820.287688,21.794896 819.38368,21.8011225 C818.46688,21.8052734 817.547948,21.7845185 816.631148,21.7679146 C816.55226,20.4831839 816.522411,19.1922267 816.520279,17.9095716 C816.518147,16.5771045 816.575713,15.2487885 816.635412,13.9204724 C817.100208,13.9225479 817.565005,13.9329254 818.029801,13.9308499 C818.55856,13.9308499 819.091584,13.9266989 819.624607,13.9308499 Z M850.614585,50.2602937 C848.947288,50.316332 847.282123,50.324634 845.61909,50.3516154 C843.83666,50.3868988 842.056362,50.5135039 840.276064,50.5446364 C836.811412,50.6089767 833.348892,50.5487873 829.884241,50.6089767 C828.146584,50.6401091 826.408928,50.7086004 824.66914,50.7086004 C822.888842,50.7086004 821.110676,50.6919964 819.330378,50.7002984 C817.950914,50.7086004 816.573581,50.7169023 815.189853,50.7480347 C814.119542,50.7770917 813.051363,50.7708652 811.983184,50.7376573 C812.006637,47.8630983 812.008769,44.9885394 811.957599,42.116056 C811.92775,40.3996226 811.821145,38.6873402 811.763579,36.9709068 C811.701748,35.1984351 811.733729,33.4259633 811.746522,31.6493406 C811.759314,29.1504461 811.746522,26.653627 811.688955,24.1588834 C811.629257,21.6807438 811.66337,19.2046797 811.69322,16.7286156 C812.262488,16.6788037 812.829625,16.6248409 813.396762,16.583331 C813.396762,17.0254112 813.388234,17.4674914 813.386102,17.9074961 C813.381837,19.6488354 813.430876,21.4005522 813.603575,23.135665 C813.595047,23.1958543 813.565198,23.2498171 813.565198,23.312082 C813.565198,24.1651099 814.296506,24.8832308 815.170664,24.8790798 C816.533072,24.8707778 817.891215,24.8188905 819.253623,24.8147395 C820.673597,24.8105885 822.089307,24.7296442 823.505017,24.7234178 C824.26191,24.7192668 824.880217,24.1713364 825.023068,23.467744 C825.133936,23.2622701 825.20856,23.0381168 825.202163,22.7932085 C825.136068,20.4790329 825.261862,18.1669328 825.323693,15.8527572 C826.924895,15.8133228 828.526097,15.7157746 830.129431,15.6597363 C831.722105,15.6036979 833.316911,15.6161509 834.909585,15.6119999 C838.030969,15.5953959 841.156618,15.6369058 844.282267,15.6846422 C844.985858,15.6970951 845.693713,15.6991706 846.401568,15.7033216 C846.435682,16.411065 846.482588,17.1167329 846.501777,17.8224008 C846.527362,18.6339189 846.53589,19.4433615 846.546551,20.2507286 C846.559343,21.0456427 846.550815,21.8426323 846.646759,22.6292445 C846.659552,22.7392457 846.691533,22.8326429 846.712854,22.9343421 C846.702193,23.0069844 846.66808,23.0713247 846.66808,23.1460425 C846.66808,24.0260518 847.427105,24.7773806 848.339641,24.7732296 C850.949323,24.7483237 853.550477,24.6175676 856.162292,24.7171913 C857.08762,24.7566257 857.863702,23.9368056 857.863702,23.0609472 C857.863702,23.0526452 857.859438,23.0464188 857.859438,23.0381168 C857.893552,22.9115117 857.938326,22.786982 857.927665,22.6479239 C857.786947,21.0373407 857.86157,19.424682 857.848778,17.8057969 C857.842381,17.0254112 857.885023,16.2450255 857.929797,15.4646398 C858.526783,15.4978477 859.125902,15.4853948 859.72502,15.4625643 C859.844417,18.440898 859.933965,21.4150806 859.951022,24.3954897 C859.968079,27.5668443 860.115193,30.7402743 860.189816,33.9116289 C860.260175,36.8256222 860.281496,39.7437665 860.292157,42.6598353 C860.296421,44.0421142 860.32627,45.4285441 860.279364,46.810823 C860.249515,47.8278149 860.164231,48.8510334 860.08108,49.8701009 C858.560897,49.9863285 857.040714,50.0755747 855.5184,50.0901032 C853.880952,50.1025562 852.2499,50.2084064 850.614585,50.2602937 Z" id="Shape"></path>
                </g>
            </g>
        </g>
    </g>
</svg>