<?xml version="1.0" encoding="UTF-8"?>
<svg width="54px" height="59px" viewBox="0 0 54 59" version="1.1" xmlns="http://www.w3.org/2000/svg" xmlns:xlink="http://www.w3.org/1999/xlink">
    <!-- Generator: Sketch 49.3 (51167) - http://www.bohemiancoding.com/sketch -->
    <title>Shape</title>
    <desc>Created with Sketch.</desc>
    <defs>
        <linearGradient x1="11.4147892%" y1="49.7500002%" x2="89.0998562%" y2="49.7500002%" id="linearGradient-1">
            <stop stop-color="#22A3DD" offset="0%"></stop>
            <stop stop-color="#53A0FD" offset="31.2305286%"></stop>
            <stop stop-color="#9CC846" offset="100%"></stop>
        </linearGradient>
    </defs>
    <g id="Page-1" stroke="none" stroke-width="1" fill="none" fill-rule="evenodd">
        <g id="HOME" transform="translate(-774.000000, -3946.000000)" fill="url(#linearGradient-1)" fill-rule="nonzero">
            <g id="Group-5" transform="translate(269.000000, 3946.000000)">
                <g id="Group" transform="translate(95.000000, 0.000000)">
                    <path d="M463.670266,45.2368076 C463.586383,43.4660766 463.539065,41.6974511 463.52616,39.9267202 C463.496048,36.2547168 463.517557,32.5806079 463.483143,28.9128155 C463.465937,27.1020799 463.47454,25.2850278 463.453032,23.4742922 C463.444428,22.5583969 463.457333,21.6382905 463.435825,20.7181842 C463.418618,19.8107109 463.351942,18.9032375 463.317529,17.9894477 C463.250853,16.136602 463.225043,14.2795452 463.199233,12.4266995 C463.177724,10.6285969 463.085238,8.83681087 463.050825,7.04291931 C463.016412,5.30166542 463.06373,3.56041153 463.072333,1.81915763 C463.076635,0.869574193 462.259317,0.0736927282 461.293591,0.0736927282 C460.936552,0.0736927282 460.618228,0.208445146 460.334318,0.391624213 C460.293452,0.389518706 460.259038,0.368463641 460.218173,0.368463641 C459.392251,0.385307693 458.570631,0.347408576 457.74471,0.330564524 C456.892978,0.313720472 456.045549,0.317931485 455.195968,0.305298446 C454.374348,0.296876419 453.548427,0.292665406 452.726807,0.250555276 C451.866472,0.212656159 451.008288,0.160018496 450.147953,0.134752417 C446.624882,0.0315825978 443.097509,-0.00631651956 439.574438,0.0694817152 C438.105416,0.0989588065 436.636395,0.164229509 435.165222,0.160018496 C433.687597,0.155807483 432.20567,0.13896343 430.728045,0.0821147543 C429.99461,0.0568486761 429.263325,0.0105275326 428.52989,0.00421101304 C428.366426,0 428.202962,0 428.037348,0 C427.493186,0 426.946874,0.00842202608 426.400561,0.0147385456 C424.669137,0.0357936109 422.939864,0.0715872217 421.20844,0.122119378 C420.971848,0.128435898 420.74601,0.178968054 420.537379,0.265293822 C420.354558,0.200023119 420.163133,0.149490963 419.960955,0.149490963 C419.003832,0.149490963 418.251039,0.92010635 418.233832,1.84442371 C418.20157,3.56672805 418.192967,5.28903238 418.184363,7.01133671 C417.489643,7.04923583 416.794922,7.05765786 416.100202,7.04923583 C415.211906,7.03660279 414.32146,7.01765323 413.431013,7.0050202 C413.332075,6.95659355 413.246041,6.88921734 413.138499,6.85974025 C412.979337,6.81763011 412.815874,6.79657505 412.654561,6.79657505 C412.331935,6.79657505 412.011461,6.8786898 411.731852,7.04081381 C411.355455,7.25557547 410.974757,7.67036026 410.893025,8.10620011 C410.690847,9.20738002 410.538137,10.3127709 410.44135,11.4244784 C410.36607,12.2919471 410.404785,13.1699433 410.41554,14.0395175 C410.445651,15.8881522 410.471461,17.7367869 410.458556,19.5854217 C410.445651,21.4003683 410.432746,23.2174204 410.471461,25.032367 C410.510176,26.8283641 410.555344,28.6222556 410.572551,30.4182527 C410.598361,34.0628845 410.501573,37.6969888 410.437048,41.3374095 C410.402635,43.1860443 410.411238,45.034679 410.402635,46.8833137 C410.394031,47.786576 410.38973,48.6898383 410.36392,49.5952061 C410.338109,50.4416197 410.36392,51.2901389 410.329506,52.1365525 C410.280037,53.2040443 410.264981,54.2799581 410.161741,55.3474499 C409.987523,55.7348631 409.950959,56.179125 410.067104,56.5896988 C410.166043,56.9434239 410.430595,57.313993 410.759674,57.5455987 C410.964003,58.2593654 411.613556,58.8025861 412.400762,58.8025861 C414.179505,58.8025861 415.953945,58.6952053 417.732687,58.6236181 C419.464111,58.5541363 421.197686,58.5583474 422.92911,58.5541363 C426.325282,58.5499253 429.725755,58.5288703 433.126228,58.5667694 C436.513797,58.6046685 439.901365,58.5751914 443.288934,58.6173015 C444.985944,58.6425676 446.689407,58.6804667 448.384267,58.7752145 C449.175775,58.8173247 449.962981,58.8573293 450.75664,58.8952284 C451.494377,58.9289165 452.234265,58.9162835 452.972002,58.9457606 C453.032226,58.9499716 453.085997,58.9499716 453.141918,58.9541826 C453.483902,58.9710266 453.78717,58.8404852 454.053873,58.6573062 C454.398007,58.5920355 454.724935,58.4593886 454.976583,58.2151498 C455.447616,57.7540439 455.553007,57.1539745 455.430409,56.5370611 C455.423957,56.5012675 455.417504,56.4654739 455.411052,56.4275748 C455.331471,55.5243125 455.385242,54.6084171 455.408901,53.7051548 C455.436862,52.7682044 455.488482,51.8291485 455.5358,50.8900926 C456.013286,50.9090422 456.492923,50.9258862 456.970409,50.9448358 C458.168425,50.9953679 459.362139,51.1048543 460.555854,51.2017076 C460.603172,51.2648728 460.620379,51.3343545 460.682753,51.3933087 C461.041943,51.7449283 461.538786,51.9491624 462.046384,51.9491624 C462.553982,51.9491624 463.046523,51.7470338 463.405713,51.3933087 C463.741244,51.0690607 464.016551,50.534262 463.969232,50.0626285 C463.818674,48.4582326 463.747696,46.8454146 463.670266,45.2368076 Z M450.898595,55.6274823 C450.081277,55.6316933 449.263959,55.6401153 448.446641,55.6359043 C447.659435,55.6316933 446.867927,55.5895832 446.078569,55.5769501 C445.201028,55.5643171 444.325637,55.547473 443.448096,55.53484 C442.465163,55.5179959 441.482231,55.53484 440.501449,55.547473 C439.793823,55.5601061 439.086198,55.5727391 438.380724,55.5685281 C436.677261,55.5601061 434.98025,55.530629 433.278938,55.4906244 C431.551816,55.4485142 429.818241,55.4695693 428.091119,55.4569363 C426.409164,55.4400922 424.733662,55.4443032 423.051708,55.4400922 C421.290172,55.4400922 419.528636,55.4358812 417.767101,55.4232482 C417.014308,55.4190371 416.259364,55.4232482 415.506571,55.4232482 C414.975314,55.4253537 414.444058,55.4190371 413.912801,55.4190371 C413.917102,55.0884726 413.919253,54.7558026 413.923555,54.4252381 C413.93646,53.5746134 413.970873,52.7218833 413.98808,51.8670476 C414.018192,50.1342158 414.01389,48.4055949 413.992382,46.6727631 C413.953667,43.0281313 414.01389,39.385605 414.048303,35.7409732 C414.082717,32.0142267 413.983778,28.2874801 413.960119,24.5607336 C413.934309,20.9203128 413.912801,17.2777865 413.895594,13.6331547 C413.895594,12.7993741 413.953667,11.9698046 414.052605,11.144446 C414.09132,10.8938907 414.138639,10.6475465 414.181655,10.3990967 C414.770985,10.3927802 415.358163,10.3885692 415.947493,10.3822527 C416.414224,10.3780416 416.878805,10.3738306 417.341235,10.3738306 C417.468134,10.3738306 417.595034,10.3780416 417.721933,10.3780416 C417.866039,10.3822527 418.014447,10.3717251 418.160704,10.3675141 C418.156402,11.4244784 418.154251,12.4814427 418.141346,13.5384069 C418.094028,17.2440984 418.216626,20.9455789 418.132743,24.6533759 C418.089726,26.3735747 418.010145,28.0937735 418.010145,29.8139723 C418.010145,31.649974 418.044559,33.4817647 418.09833,35.3198719 C418.154251,37.0863919 418.251039,38.8487008 418.313413,40.6089043 C418.380089,42.3880573 418.369335,44.1651048 418.410201,45.9442578 C418.431709,46.7822494 418.410201,47.6223465 418.605927,48.439283 C418.752184,49.0414579 419.242575,49.4583482 419.814698,49.6520548 C420.135172,50.1131607 420.651373,50.4331977 421.257909,50.4479362 C423.223775,50.4858354 425.187489,50.4563583 427.153354,50.3974041 C428.975113,50.3426609 430.790419,50.3321334 432.612178,50.3321334 C433.214413,50.3363444 433.818798,50.3363444 434.425334,50.3363444 C437.350473,50.3363444 440.27346,50.3363444 443.198599,50.4142481 C444.740749,50.4563583 446.276446,50.6016382 447.818597,50.6500649 C449.231697,50.6942805 450.649098,50.7090191 452.062198,50.7616567 C452.01488,52.3871077 452.001975,54.0146643 451.984768,55.6422208 C451.941751,55.6422208 451.898735,55.6422208 451.855718,55.6422208 C451.539545,55.6316933 451.216919,55.6274823 450.898595,55.6274823 Z M456.191805,47.479172 C454.505549,47.4370619 452.821444,47.3549472 451.135187,47.3423141 C449.304825,47.3254701 447.485217,47.304415 445.654855,47.1970342 C443.880414,47.0938644 442.09737,47.0433322 440.314326,47.0306992 C438.722707,47.0222771 437.128936,47.0475432 435.533015,47.0475432 C434.02958,47.0475432 432.521843,47.0475432 431.018408,47.0559652 C429.493465,47.0643873 427.964219,47.0812313 426.441427,47.0812313 C425.019723,47.0812313 423.59802,47.0328047 422.176317,46.988589 C422.085982,45.5105235 422.077378,44.0345634 422.034362,42.5543923 C421.982742,40.7478677 421.873049,38.9350266 421.767658,37.128502 C421.565479,33.5386134 421.548272,29.9234587 421.610647,26.325148 C421.627853,25.4787344 421.677323,24.6344263 421.666568,23.7880127 C421.657965,22.8510623 421.623552,21.9141119 421.599893,20.9771615 C421.552574,19.1243157 421.524613,17.27147 421.520312,15.4228353 C421.520312,11.609763 421.511708,7.79879615 421.625703,3.98993486 C421.630004,3.82781086 421.634306,3.66989787 421.640758,3.50987937 C423.49478,3.44250316 425.346651,3.35617739 427.198521,3.30564524 C428.078214,3.28037916 428.955755,3.2930122 429.833297,3.34354436 C430.672123,3.39407651 431.515252,3.46776924 432.356229,3.49303532 C434.130669,3.54777849 435.900808,3.53093444 437.675249,3.50987937 C438.772176,3.49724633 439.869103,3.49724633 440.96603,3.49724633 C441.626337,3.49724633 442.282342,3.49724633 442.942649,3.49303532 C445.861335,3.48461329 448.795077,3.49724633 451.705159,3.70148046 C453.129013,3.80043927 454.555018,3.80043927 455.983174,3.8088613 C457.170436,3.81517782 458.355548,3.83833839 459.54281,3.874132 C459.581525,6.94817152 459.652502,10.022211 459.658955,13.0962506 C459.658955,13.9700358 459.641748,14.8459265 459.633145,15.7197117 C459.624541,16.6608731 459.663257,17.5978235 459.680463,18.5347739 C459.714877,20.3791976 459.764346,22.2194103 459.755743,24.0617285 C459.742838,27.7421539 459.729932,31.4288958 459.721329,35.1093212 C459.717027,38.6739438 459.682614,42.2427773 459.865435,45.8010834 C459.897698,46.4222078 459.940715,47.0391212 459.977279,47.6602456 C458.714737,47.5844474 457.452196,47.5086491 456.191805,47.479172 Z M455.918649,24.0301459 C455.858426,20.7876659 455.703565,17.5515024 455.63904,14.3132333 C455.600325,12.4266995 455.651945,10.5401656 455.710018,8.65784281 C455.735828,7.82406223 454.980884,7.13345609 454.150661,7.13345609 C454.064628,7.13345609 453.99365,7.1671442 453.911918,7.17977724 C453.640913,6.99659817 453.329041,6.84921271 453.010717,6.84921271 C452.976304,6.84921271 452.944041,6.85131822 452.909628,6.85342373 C451.804098,6.95238253 450.698568,6.94817152 449.588736,6.94396051 C449.089741,6.94396051 448.588596,6.94396051 448.093904,6.94817152 C447.098066,6.96501557 446.108681,6.95659355 445.117145,6.94396051 C444.372956,6.93974949 443.626615,6.93132747 442.884576,6.93132747 C440.996141,6.93974949 439.103405,6.99449266 437.21497,7.02607526 C435.489998,7.05765786 433.767178,7.03239178 432.040056,7.01554773 C430.444135,6.99870368 428.846063,6.98607064 427.250142,6.98185962 C426.693075,6.98185962 426.211287,7.266103 425.888662,7.67457127 C425.589695,7.96723668 425.402572,8.36938842 425.398271,8.81154479 C425.363857,12.2224654 425.305785,15.6354914 425.31869,19.046412 C425.331595,22.293103 425.16598,25.5250556 424.955198,28.7633246 C424.862712,30.2561287 424.836902,31.7573549 424.671288,33.2396314 C424.623969,33.6628383 424.88207,34.1513158 425.178885,34.4418757 C425.355254,34.6145272 425.572489,34.7366466 425.80693,34.8187613 C426.052125,34.9514082 426.318829,35.046156 426.615645,35.0482615 C427.538354,35.0566836 428.461063,35.0566836 429.385923,35.0524726 C430.394665,35.0482615 431.401257,35.0482615 432.41,35.0566836 C434.255418,35.0777386 436.102987,35.0735276 437.948405,35.0735276 C439.765863,35.0735276 441.576867,35.0777386 443.394325,35.1072157 C445.235441,35.1366928 447.070105,35.2230186 448.90692,35.2988168 C450.606082,35.3640875 452.315997,35.3851426 454.015158,35.5388446 C454.477588,35.5809547 454.993789,35.3240829 455.309962,35.0124679 C455.413202,34.9114036 455.473426,34.7808622 455.548705,34.6587428 C455.94661,34.3513389 456.221917,33.9007605 456.209012,33.3807004 C456.165995,31.8878963 456.047699,30.3993032 456.008984,28.906499 C455.968118,27.2831535 455.94661,25.659808 455.918649,24.0301459 Z M433.263882,10.3190875 C435.081339,10.2769773 436.896646,10.1906516 438.714103,10.1443304 C440.548767,10.1022203 442.385582,10.0748487 444.220246,10.1443304 C445.917257,10.2074956 447.616418,10.3485646 449.31773,10.3759361 C450.412506,10.3948857 451.509433,10.4517344 452.604209,10.4201518 C452.597757,11.7087218 452.58055,12.9972918 452.627868,14.2879673 C452.688092,15.8670971 452.746164,17.442016 452.78488,19.0169349 C452.827896,21.0213771 452.823595,23.0258193 452.808539,25.0302615 C452.756919,24.9713073 452.696695,24.9207752 452.645075,24.861821 C452.081556,24.2280635 451.50083,23.6090446 450.913651,23.0047642 C450.623288,22.7036768 450.223233,22.5583969 449.821026,22.5583969 C449.408065,22.5583969 448.995105,22.7120988 448.696138,23.0047642 C448.517619,23.1795213 448.410077,23.3879664 448.334798,23.6069391 C447.902479,23.4595537 447.422843,23.4658702 447.029239,23.7248475 C446.364631,24.1606873 445.704324,24.6028437 445.035413,25.0344725 C444.51276,25.3692481 444.013766,25.7398172 443.469604,26.0387991 C443.454548,26.0282716 443.437342,26.0177441 443.422286,26.0072165 C443.22871,25.8282485 443.060945,25.6345419 442.897481,25.4303078 C442.075862,24.3775545 441.239186,23.3353288 440.396058,22.2973141 C439.998153,21.7919925 439.600248,21.2824599 439.191589,20.7876659 C439.008768,20.5644822 438.819494,20.351826 438.62807,20.1412754 C438.44955,19.9496743 438.277483,19.7601787 438.098964,19.5727886 C437.772037,19.2422241 437.399942,19.0127239 436.967624,18.8421779 C436.746087,18.7537466 436.5224,18.7200585 436.294412,18.7200585 C436.13525,18.7200585 435.976088,18.7369025 435.812624,18.7642741 C435.410417,18.8253338 435.139412,19.0674671 434.829691,19.3032838 C434.618909,19.4654078 434.431787,19.6633254 434.231759,19.8380824 C433.765027,20.2655003 433.28324,20.6844961 432.803603,21.1034919 C431.386201,22.3352132 429.94514,23.5437739 428.512683,24.7607567 C428.523437,24.4933574 428.534191,24.2280635 428.544945,23.9606642 C428.609471,22.2741535 428.628828,20.5834317 428.605169,18.8948155 C428.583661,17.3030526 428.448158,15.7112897 428.499778,14.1153157 C428.540644,12.8730669 428.590113,11.6329235 428.63313,10.3906747 C430.17528,10.3738306 431.719581,10.3569866 433.263882,10.3190875 Z M443.5879,26.1103864 C443.585749,26.1103864 443.583598,26.1103864 443.581448,26.1124919 C443.583598,26.1103864 443.585749,26.1103864 443.5879,26.1103864 Z M439.002315,25.5671657 C439.0905,25.680863 439.178684,25.7903494 439.264718,25.9019412 C439.204494,25.8240375 439.14212,25.7461337 439.079746,25.6661245 C439.053936,25.6345419 439.028125,25.6008538 439.002315,25.5671657 Z M443.488962,31.9236899 C439.843293,31.978433 436.197624,31.953167 432.554106,31.8247311 C431.104442,31.7741989 429.656928,31.7405108 428.207264,31.7068227 C428.24813,30.8519871 428.288996,29.9971514 428.332013,29.1402103 C428.482571,29.0665175 428.63313,28.9886138 428.76218,28.8707054 C430.160224,27.6074015 431.556117,26.3419921 432.954162,25.0807937 C434.016675,24.1164717 435.036172,23.1079341 436.143853,22.1941442 C436.59983,22.6426171 437.017093,23.1458332 437.414998,23.6258887 C437.976366,24.3101783 438.544187,24.9923624 439.094801,25.6871796 C439.542176,26.2725104 439.968041,26.8620522 440.383153,27.4684381 C440.63265,27.8326907 440.899354,28.1906268 441.230583,28.4875032 C441.445666,28.6875263 441.688711,28.8601779 441.925303,29.0349349 C442.581308,29.5107794 443.420135,29.5823666 444.185833,29.3781325 C444.710637,29.2370636 445.20533,28.898077 445.637648,28.582251 C445.975329,28.3338013 446.315162,28.0853515 446.652843,27.8326907 C447.304547,27.3568462 447.964854,26.8831073 448.646669,26.4430564 C448.924127,26.2661938 449.115551,26.0114276 449.253205,25.7377117 C450.152255,26.636763 451.055607,27.5379198 451.88798,28.4938197 C452.115969,28.7549026 452.440746,28.8685999 452.776276,28.902288 C452.767673,29.9234587 452.782729,30.9425238 452.793483,31.9636945 C451.548148,31.9847496 450.304964,32.0163322 449.061781,31.9868551 C447.203457,31.9489559 445.351587,31.8942128 443.488962,31.9236899 Z M443.069548,20.5244776 C443.581448,20.8487256 444.170777,21.0803313 444.770861,21.2003452 C445.517201,21.3498361 446.209771,21.295093 446.934603,21.0719093 C447.429295,20.9139963 447.926139,20.7329227 448.390719,20.5034225 C448.797228,20.2991884 449.165021,19.9559908 449.466138,19.6212153 C449.771557,19.2822287 450.033959,18.9074486 450.218931,18.4926638 C450.578121,17.6757272 450.791054,16.7724649 450.717925,15.8776247 C450.67921,15.4249408 450.621137,14.9743624 450.47273,14.5427335 C450.375942,14.2732287 450.257646,14.0079349 450.130747,13.7510631 C449.868344,13.2288975 449.436026,12.8878054 448.95854,12.5656629 C448.70044,12.3909059 448.399323,12.283525 448.149826,12.1024515 C448.117563,12.0792909 448.08315,12.0582358 448.048736,12.0371808 C447.747619,11.8371577 447.418541,11.7697815 447.03139,11.7192493 C446.573262,11.6645061 446.119435,11.6287125 445.652704,11.6287125 C445.626894,11.6287125 445.603234,11.6287125 445.577424,11.6287125 C445.188123,11.6371345 444.785916,11.7192493 444.418123,11.8392632 C443.906224,11.9971762 443.53628,12.279314 443.12547,12.5972455 C442.566252,13.0330854 442.172649,13.6836869 441.832817,14.2837562 C441.312314,15.2228121 440.993991,16.2966205 441.116588,17.3704288 C441.260694,18.6168887 441.972621,19.844399 443.069548,20.5244776 Z M444.809576,16.6419235 C444.848291,16.473483 444.89776,16.311359 444.957983,16.149235 C445.119296,15.820776 445.306419,15.50495 445.51505,15.2059681 C445.549464,15.168069 445.583877,15.1322754 445.61829,15.0964818 C445.631195,15.0922707 445.646251,15.0901652 445.659156,15.0859542 C445.760246,15.0817432 445.859184,15.0817432 445.960273,15.0859542 C446.046307,15.163858 446.140944,15.2333397 446.239882,15.2986104 C446.43991,15.4270463 446.648541,15.5386381 446.85072,15.6565465 C446.898038,15.7976154 446.938904,15.9407899 446.973318,16.0881753 C446.981921,16.2545103 446.981921,16.4187399 446.969016,16.5829694 C446.941055,16.7156163 446.906642,16.8461577 446.863625,16.9766991 C446.82491,17.0440753 446.786195,17.1114515 446.743178,17.1767222 C446.689407,17.2335709 446.635636,17.288314 446.577564,17.3430572 C446.54315,17.3641123 446.506586,17.3851673 446.470022,17.4041169 C446.203318,17.4925482 445.928011,17.5683464 445.650553,17.6294061 C445.536559,17.6020345 445.426866,17.5704519 445.315022,17.5346583 C445.235441,17.4946537 445.160162,17.4546491 445.082732,17.4104334 C445.048319,17.3788508 445.013905,17.3472682 444.979492,17.3135801 C444.934324,17.2398874 444.891307,17.1661947 444.850441,17.0903964 C444.833235,17.0377588 444.816028,16.9851211 444.800972,16.9324834 C444.805274,16.8356301 444.805274,16.7387768 444.809576,16.6419235 Z" id="Shape"></path>
                </g>
            </g>
        </g>
    </g>
</svg>