<?xml version="1.0" encoding="UTF-8"?>
<svg width="60px" height="55px" viewBox="0 0 60 55" version="1.1" xmlns="http://www.w3.org/2000/svg" xmlns:xlink="http://www.w3.org/1999/xlink">
    <!-- Generator: Sketch 49.3 (51167) - http://www.bohemiancoding.com/sketch -->
    <title>Shape</title>
    <desc>Created with Sketch.</desc>
    <defs>
        <linearGradient x1="11.4147892%" y1="49.7500002%" x2="89.0998562%" y2="49.7500002%" id="linearGradient-1">
            <stop stop-color="#22A3DD" offset="0%"></stop>
            <stop stop-color="#53A0FD" offset="31.2305286%"></stop>
            <stop stop-color="#9CC846" offset="100%"></stop>
        </linearGradient>
    </defs>
    <g id="Page-1" stroke="none" stroke-width="1" fill="none" fill-rule="evenodd">
        <g id="HOME" transform="translate(-364.000000, -3948.000000)" fill="url(#linearGradient-1)" fill-rule="nonzero">
            <g id="Group-5" transform="translate(269.000000, 3946.000000)">
                <g id="Group" transform="translate(95.000000, 0.000000)">
                    <path d="M58.6741491,29.6524641 C58.2998492,29.2991902 57.9403521,28.9397185 57.5871992,28.5657853 C57.1177383,28.0596326 56.6969153,27.5080294 56.2274544,26.9998108 C55.0326554,25.7003413 53.7934479,24.4442562 52.5246347,23.2170942 C51.2727391,21.9981959 49.9785497,20.826814 48.72031,19.6161794 C47.4388087,18.3848855 46.1911424,17.1267346 44.9603937,15.8499902 C43.0000774,13.8150498 41.060908,11.7615161 39.0582979,9.76582835 C38.0453621,8.75558891 37.0112794,7.76600876 36.015261,6.74130781 C34.8035445,5.49761836 33.6024014,4.24566518 32.3991436,2.99577794 C32.0481053,2.63217438 31.5617269,2.45657038 31.0753485,2.45657038 C30.9463525,2.45657038 30.8237006,2.50202083 30.698934,2.52681198 C30.3478957,2.19419736 29.8784348,2 29.3878271,2 C28.8528109,2 28.4573641,2.21279072 28.0619173,2.5350757 C26.5752913,3.74571028 25.1795968,5.05344355 23.7944758,6.37357239 C23.168528,6.9726919 22.563727,7.5924707 21.9420086,8.1915902 C21.2505054,8.85888538 20.5420848,9.50758719 19.8378935,10.1624868 C18.4908369,11.4185718 17.1078305,12.6436679 15.7861502,13.92661 C14.5384839,15.1455083 13.2992764,16.3768022 11.9818254,17.523393 C9.96441254,19.2691033 7.91316463,20.9672972 5.99725679,22.8183699 C5.07948195,23.7067195 4.15959242,24.5888713 3.2375882,25.4730891 C2.35153369,26.322186 1.49085544,27.2146675 0.50329588,27.960468 C0.164945708,28.2166432 0,28.7558508 0,29.1545751 C0,29.6049477 0.181863217,30.0367269 0.50329588,30.3528141 C0.82895792,30.6709673 1.27304252,30.8507031 1.72981525,30.8507031 C2.22888175,30.8507031 2.58626412,30.650308 2.95633462,30.3528141 C3.63937903,29.8136066 4.24206527,29.1855641 4.86378371,28.5864446 C5.46435527,28.0079843 6.06281213,27.4398538 6.67184244,26.8717232 C7.07786265,26.4936581 7.49234161,26.1238568 7.89624712,25.7437258 C7.89624712,26.4626692 7.89624712,27.1795467 7.86029742,27.900556 C7.78205394,29.5574313 7.61287885,31.203977 7.5853879,32.8649842 C7.53252069,36.292361 7.51983256,39.7135399 7.54732351,43.1409167 C7.56001164,45.1366044 7.50291505,47.1281603 7.4563919,49.1197162 C7.43524501,50.001868 7.45216252,50.8902176 7.48176816,51.7744354 C7.5113738,52.662785 7.50291505,53.5532005 7.54309413,54.4415501 C7.58115853,55.3712183 8.30861139,56.1521396 9.29405627,56.1521396 C9.53936014,56.1521396 9.77620526,56.0922277 9.99613287,55.995129 C11.7259481,56.1500737 13.4578781,56.1645352 15.1961521,56.1376781 C16.9661464,56.112887 18.7382554,56.1252825 20.5082498,56.14181 C24.0863028,56.1748648 27.6580118,56.1851945 31.2318355,56.2616339 C33.1921518,56.3050184 35.1566975,56.2988206 37.1212432,56.2988206 C38.2166518,56.2946887 39.3205193,56.2946887 40.4201573,56.2988206 C41.8814071,56.3029525 43.3405423,56.2822932 44.8017921,56.2657657 C45.5503918,56.257502 46.2968769,56.2657657 47.0454766,56.2698976 C47.246372,56.2740294 47.4493821,56.2698976 47.6545069,56.2698976 C48.1007062,56.2616339 48.5469055,56.257502 48.9909901,56.288491 C49.3906663,56.3277436 49.7628514,56.2905569 50.1371513,56.0777662 C50.5410568,55.848448 50.8413426,55.4662511 50.9682239,55.0282741 C51.0295499,54.8030878 51.0443527,54.5696378 51.0147471,54.3403196 C51.042238,54.2204957 51.0887612,54.1089355 51.0887612,53.9829138 C51.0591555,50.8736902 50.9449624,47.7706643 50.8920951,44.6614407 C50.8624895,43.014895 50.7927048,41.3580197 50.8096223,39.7052762 C50.8223104,38.1558292 50.8265398,36.6105141 50.8434573,35.0590012 C50.8709483,32.197689 50.8942098,29.334311 50.9280448,26.4709329 C51.490552,27.0163383 52.0509445,27.5617436 52.5986488,28.1216105 C53.2309407,28.7703123 53.8653473,29.42108 54.4447719,30.1131663 C54.6033736,30.3342208 54.7471724,30.5676708 54.905774,30.7928571 C55.1468485,31.1399332 55.4302168,31.4580863 55.6966676,31.7865691 C55.8108608,31.9332501 55.9250539,32.0778651 56.0498206,32.2162824 C56.705374,32.9724125 58.0016781,32.8753138 58.6762638,32.2162824 C59.3783404,31.5303939 59.4016019,30.3404186 58.6741491,29.6524641 Z M28.9987244,52.8755757 C27.6537824,52.8259934 26.3067258,52.7991363 24.9617839,52.7743452 C24.8941139,50.4274494 24.8497054,48.0764219 24.7904941,45.7253943 C24.7566591,44.4011336 24.7651178,43.0706751 24.7376269,41.7464144 C24.71648,40.5729665 24.6297778,39.3995187 24.5325021,38.2260708 C26.2157942,38.2653235 27.8969716,38.2880487 29.5760343,38.3975429 C30.4240245,38.4574549 31.2614411,38.5256306 32.1094313,38.5586854 C32.4858458,38.5731469 32.8643751,38.5545536 33.2429043,38.5504217 C33.2767393,40.7320431 33.3148037,42.9157304 33.40785,45.0952858 C33.4607173,46.407151 33.4607173,47.7190161 33.5114698,49.0267494 C33.5664517,50.3448123 33.6531539,51.6608093 33.7525443,52.9747403 C32.1686425,52.9706084 30.5826261,52.9334217 28.9987244,52.8755757 Z M44.5078503,52.8197956 C42.8393611,52.8321912 41.1687571,52.9086306 39.4960384,52.9292899 C38.7981912,52.9396195 38.0982293,52.9437514 37.4003821,52.9520151 C37.2079454,50.3572078 37.1254725,47.7603347 37.0028206,45.1593296 C36.9330359,43.775157 36.8421043,42.3951162 36.8378749,41.0109436 C36.8336455,39.4945514 36.8590218,37.9822912 36.8632512,36.467965 C36.8674805,35.4907804 36.0237198,34.6768042 35.0298162,34.6768042 C34.5666994,34.6768042 34.1458763,34.8648038 33.8202143,35.149902 C33.2513631,35.1478361 32.6825119,35.149902 32.1115459,35.1292427 C31.2635558,35.0899901 30.4197951,35.0321441 29.578149,34.9639684 C27.4951808,34.7904303 25.4058685,34.7222547 23.3144415,34.6375516 C23.2911799,34.6375516 23.2679183,34.6354856 23.2446568,34.6354856 C22.4241576,34.6354856 21.7601454,35.26766 21.5719381,36.0175924 C21.4810065,36.0775043 21.3773868,36.116757 21.2991433,36.1931964 C20.98194,36.5072176 20.7070305,37.0298977 20.7556683,37.4844022 C20.8952378,38.9078275 21.0348072,40.3209232 21.0982479,41.7484803 C21.1638032,43.072741 21.1553445,44.4031995 21.1934089,45.7274602 C21.2314732,47.0104023 21.301258,48.2912785 21.3245195,49.5742206 C21.3435517,50.6257787 21.335093,51.6814685 21.3879602,52.7350925 C20.7493243,52.7309606 20.1106883,52.720631 19.474167,52.7185651 C18.8143842,52.7185651 18.1524867,52.7226969 17.4969332,52.7226969 C15.3336068,52.7330266 13.1702804,52.7020376 11.0132981,52.5429611 C11.0111834,52.4520602 11.0111834,52.3632252 11.0090687,52.2723243 C10.9794631,51.5203261 10.9477427,50.7683278 10.939284,50.0183954 C10.9139077,48.3573883 10.9646602,46.7025789 10.9773484,45.0415717 C11.0027246,41.5935356 10.9942659,38.1496314 11.0809681,34.7015954 C11.1296059,32.7265669 11.1676703,30.7536044 11.3114692,28.7827078 C11.3897126,27.7476772 11.4637267,26.7147126 11.5060205,25.679682 C11.550429,24.6322558 11.5081352,23.5889615 11.4425799,22.5436013 C12.5866264,21.5850101 13.7454757,20.6470781 14.8599166,19.6533661 C16.1731382,18.4819842 17.4208044,17.2382947 18.693847,16.0235283 C20.6160989,14.1889831 22.6483146,12.4742617 24.5578784,10.6211231 C26.2771202,8.9518522 28.0555733,7.34455918 29.9038111,5.81370554 C31.3185377,7.25779015 32.7396084,8.68534731 34.2029729,10.0777837 C35.5627177,11.3689895 36.9330359,12.641602 38.2462575,13.9803242 C40.74159,16.5152195 43.1925141,19.0893674 45.7407138,21.5726145 C46.5400661,22.3535358 47.3669093,23.1117318 48.1895231,23.8719938 C47.722177,24.1860151 47.3944002,24.6880359 47.3880562,25.2747598 C47.3795974,27.053525 47.3922856,28.8281583 47.3965149,30.6027916 C47.4007443,32.2803262 47.3711387,33.9578608 47.3521065,35.6395273 C47.3394183,37.1807106 47.3478771,38.7260257 47.369024,40.2734068 C47.3901709,41.9385458 47.5001347,43.6016189 47.5170522,45.2708898 C47.5297403,46.7604249 47.6037544,48.2520259 47.6037544,49.7477587 C47.6016397,50.7559322 47.5952957,51.7682376 47.5847222,52.778477 C47.4049737,52.7826089 47.2231105,52.7826089 47.0433619,52.7846748 C46.1974865,52.7950045 45.3537258,52.8115319 44.5078503,52.8197956 Z M28.2839596,27.7683365 C28.2797303,27.7683365 28.2776156,27.7683365 28.2733862,27.7683365 C28.2733862,27.7683365 28.2712715,27.7683365 28.2712715,27.7683365 C28.2755009,27.7662706 28.2797303,27.7662706 28.2839596,27.7683365 Z M28.1105552,27.7456113 C28.1655371,27.7518091 28.2184043,27.7600728 28.2712715,27.7662706 C28.2712715,27.7662706 28.2712715,27.7662706 28.2712715,27.7662706 C28.2162896,27.7600728 28.1634224,27.7518091 28.1105552,27.7456113 Z M33.3422947,20.2008374 C33.0229767,19.6079157 32.566204,19.1348179 32.0142703,18.7732802 C31.9677471,18.6162696 31.9021918,18.4654568 31.8176042,18.3229076 C31.5786444,17.9200514 31.1049542,17.5027337 30.6143464,17.4180306 C30.2019822,17.3498549 29.7875032,17.2734155 29.3709096,17.232097 C29.2228814,17.2176355 29.0769678,17.2114377 28.933169,17.2114377 C28.580016,17.2114377 28.2353218,17.2506903 27.8715954,17.3044045 C27.0510962,17.4283602 26.3765105,17.843612 25.742104,18.3353032 C24.5430755,19.2691033 23.9255865,20.768968 23.7564114,22.2254481 C23.6950854,22.7088756 23.7120029,23.1509845 23.7944758,23.634412 C23.8854074,24.1694876 24.0989909,24.6611788 24.363327,25.1384085 C24.5938281,25.5536603 24.9448664,25.9358572 25.2726431,26.2808674 C25.6511724,26.6795918 26.1417801,27.0328657 26.6556494,27.2539201 C26.9199855,27.3716781 27.1906656,27.4873702 27.4676898,27.5844688 C27.7299112,27.6815675 27.9984767,27.7290839 28.2712715,27.7662706 C28.2733862,27.7662706 28.2733862,27.7662706 28.2755009,27.7662706 C28.865499,27.8385781 29.3857124,27.871633 29.9989721,27.7662706 C30.7814068,27.6257874 31.5300066,27.2787113 32.1411516,26.7808223 C32.9806829,26.0969997 33.5791398,25.1590678 33.8751962,24.130235 C33.9936188,23.7108513 34.0612888,23.2646106 34.0845504,22.8266336 C34.1183854,22.142811 33.9661278,21.4796477 33.6806449,20.8598689 C33.5727957,20.6367485 33.4607173,20.4156941 33.3422947,20.2008374 Z M30.705278,22.9072048 C30.6608696,23.1096659 30.6058877,23.3079951 30.536103,23.5042584 C30.4726623,23.6178845 30.407107,23.7294447 30.3330929,23.836873 C30.2379319,23.9381036 30.1385415,24.0352022 30.0328071,24.1323009 C29.9482195,24.1860151 29.8615173,24.2355974 29.7705857,24.2831138 C29.67331,24.3141027 29.5739197,24.3430257 29.4745293,24.3678169 C29.3772536,24.3719487 29.2799779,24.3719487 29.1805876,24.3698828 C29.0198713,24.3368279 28.8633843,24.2955093 28.7047827,24.245927 C28.546181,24.1632899 28.3939234,24.0765208 28.2437805,23.9794221 C28.1422755,23.8843894 28.0471145,23.7893567 27.9561829,23.6881261 C27.8441044,23.5311155 27.7425994,23.3679071 27.6495531,23.1985009 C27.6389796,23.165446 27.6305209,23.1323911 27.6199474,23.0972703 C27.6136034,22.9691827 27.6136034,22.843161 27.6199474,22.7130075 C27.6791587,22.4382389 27.7574022,22.1737999 27.8525632,21.9114269 C27.935036,21.7585481 28.0238529,21.6139331 28.1190139,21.4713839 C28.1739958,21.4135379 28.2332071,21.3556919 28.2945331,21.3019777 C28.38335,21.2461976 28.4742816,21.1924835 28.5673279,21.1408352 C28.7534205,21.1305056 28.9395131,21.1284397 29.1277204,21.1408352 C29.2672898,21.1656264 29.4047446,21.1924835 29.5464287,21.2172746 C29.6521631,21.235868 29.7536682,21.2503295 29.8551732,21.2606592 C29.8572879,21.2627251 29.8594026,21.2627251 29.863632,21.264791 C29.9735958,21.3143733 30.0772155,21.3701534 30.1808353,21.4321313 C30.2252437,21.4713839 30.2675375,21.5127025 30.3098313,21.556087 C30.4113363,21.7275592 30.5022679,21.9031632 30.5889702,22.0808331 C30.6397227,22.2171844 30.6820165,22.3514698 30.7137368,22.491953 C30.7158515,22.6324362 30.7137368,22.7687876 30.705278,22.9072048 Z" id="Shape"></path>
                </g>
            </g>
        </g>
    </g>
</svg>